<svg width="345" height="118" viewBox="0 0 345 118" fill="none" xmlns="http://www.w3.org/2000/svg">
<path d="M35.6215 41.4646C33.1 42.7885 29.7597 43.9222 25.2234 43.9222C17.8505 43.9222 13.3766 41.4007 9.84767 38.062C4.9948 33.3994 3.1048 28.1675 3.1048 21.9923C3.1048 14.3668 6.25636 8.88392 9.84767 5.54524C14.069 1.57499 19.3008 -1.52588e-05 25.2874 -1.52588e-05C28.2487 -1.52588e-05 31.7776 0.503673 35.6215 2.58392V12.1634C31.7776 7.7518 26.9871 7.43679 25.476 7.43679C17.0319 7.43679 11.549 14.3684 11.549 22.1202C11.549 31.447 18.7332 36.4885 25.791 36.4885C29.6974 36.4885 33.1639 34.7872 35.6215 31.8883V41.4677V41.4646Z" fill="white"/>
<path d="M67.9495 34.1557H50.9972L47.2796 42.9772H38.3941L56.4801 0.944977H62.908L80.4903 42.9772H71.6672L67.9495 34.1557ZM65.5559 27.4752L59.5693 12.3505L53.5827 27.4752H65.5559Z" fill="white"/>
<path d="M90.9524 0.944977H96.8766L108.031 27.6638L119.689 0.944977H125.613L132.671 42.9772H124.353L120.572 17.077L109.293 42.9772H106.52L95.7444 17.077L91.4592 42.9772H83.1413L90.9524 0.944977Z" fill="white"/>
<path d="M152.207 0.944977C156.934 0.944977 160.21 1.44867 163.298 4.15891C166.701 7.18416 167.583 11.2792 167.583 14.3044C167.583 15.9433 167.331 20.4797 164.117 23.6936C161.785 26.0249 158.319 27.4112 153.467 27.4112H148.173V42.9772H139.982V0.944977H152.206H152.207ZM148.173 20.3549H151.514C153.089 20.3549 155.105 20.3549 156.87 19.031C158.383 17.8333 159.139 15.9433 159.139 14.1157C159.139 11.7844 158.005 10.2094 156.808 9.32679C155.106 8.12916 152.964 8.00285 151.01 8.00285H148.173V20.3549Z" fill="white"/>
<path d="M194.619 34.1557H177.666L173.949 42.9772H165.063L183.149 0.944977H189.577L207.159 42.9772H198.336L194.619 34.1557ZM192.223 27.4752L186.237 12.3505L180.25 27.4752H192.223Z" fill="white"/>
<path d="M211.95 42.9772V0.944977H217.621L243.207 28.9878V0.944977H251.4V42.9772H245.728L220.143 14.872V42.9772H211.951H211.95Z" fill="white"/>
<path d="M269.046 17.2034H286.817V0.944977H295.009V42.9772H286.817V24.2612H269.046V42.9772H260.854V0.944977H269.046V17.2034Z" fill="white"/>
<path d="M329.354 34.1557H312.402L308.685 42.9772H299.799L317.885 0.944977H324.313L341.895 42.9772H333.072L329.354 34.1557ZM326.959 27.4752L320.973 12.3505L314.986 27.4752H326.959Z" fill="white"/>
<path d="M44.7534 107.014V82.4146C44.7534 81.4447 44.4977 80.601 43.9877 79.8853C43.4763 79.1711 42.787 78.5816 41.9184 78.1231C41.0498 77.6631 40.0799 77.3185 39.007 77.0877C37.9341 76.8585 36.8098 76.7431 35.6356 76.7431C32.6711 76.7431 30.463 77.331 29.0065 78.5052C27.55 79.681 26.8218 80.9831 26.8218 82.4131C26.8218 83.4859 27.1399 84.4574 27.7808 85.3245C28.4186 86.1931 29.3901 86.8948 30.6922 87.4312C31.9943 87.9677 33.6426 88.2359 35.6356 88.2359C37.7797 88.2359 39.6963 87.8523 41.382 87.0866C43.0677 86.3209 44.1655 85.0687 44.677 83.3316L38.547 107.011C36.9112 107.42 35.3533 107.713 33.8719 107.892C32.3904 108.072 30.6782 108.16 28.7367 108.16C24.8024 108.16 21.0988 107.612 17.626 106.514C14.1516 105.416 11.0983 103.794 8.46758 101.647C5.83686 99.501 3.76597 96.8953 2.26114 93.8295C0.753193 90.7637 0 87.2644 0 83.33C0 79.9586 0.536436 76.9317 1.60931 74.2496C2.68218 71.5674 4.14958 69.2298 6.01463 67.2369C7.87968 65.244 10.0379 63.5848 12.4908 62.2562C14.9438 60.9291 17.5605 59.9451 20.3456 59.3058C23.1291 58.668 25.9516 58.3483 28.8147 58.3483C29.9889 58.3483 31.1897 58.3998 32.4154 58.5011C33.6411 58.604 34.8418 58.7569 36.0176 58.9611C37.1934 59.1654 38.3037 59.4477 39.3516 59.8048C40.398 60.1634 41.3695 60.597 42.263 61.1084C43.1566 61.6199 43.9363 62.2078 44.6006 62.8706C44.652 62.922 44.6895 62.9345 44.716 62.908C44.7409 62.883 44.755 62.8456 44.755 62.7942V49.5361H71.2711V107.011H44.755L44.7534 107.014Z" fill="white"/>
<path d="M74.3323 80.2689V59.5007H100.848V74.6738L100.772 74.7502C96.3776 75.6702 91.9723 76.5887 87.5529 77.5088C83.1336 78.4288 78.7267 79.3489 74.3338 80.2674L74.3323 80.2689ZM74.3323 107.014V80.2689H100.848V107.014H74.3323Z" fill="white"/>
<path d="M170.813 78.1247V96.8236C170.813 99.5822 170.173 102.073 168.896 104.296C167.619 106.518 165.857 108.485 163.61 110.197C161.361 111.908 158.755 113.325 155.793 114.45C152.828 115.572 149.636 116.428 146.213 117.016C142.79 117.603 139.316 117.897 135.79 117.897C131.294 117.897 126.848 117.411 122.457 116.441C118.063 115.471 114.128 114.014 110.656 112.073V99.8878C112.137 100.859 113.938 101.74 116.059 102.533C118.178 103.325 120.439 103.95 122.841 104.41C125.242 104.87 127.617 105.099 129.967 105.099C131.909 105.099 133.735 104.908 135.447 104.525C137.159 104.142 138.678 103.541 140.008 102.724C141.335 101.907 142.383 100.834 143.15 99.5058C143.916 98.1787 144.3 96.5429 144.3 94.6014V80.4233C144.3 79.5032 144.12 78.7126 143.763 78.0483C143.405 77.3856 142.882 76.8351 142.193 76.4C141.504 75.9665 140.697 75.6344 139.779 75.4036C138.859 75.1743 137.836 75.0589 136.713 75.0589C135.18 75.0589 133.813 75.2507 132.614 75.6344C131.411 76.018 130.48 76.5918 129.816 77.3591C129.152 78.1263 128.819 79.0713 128.819 80.1956C128.819 81.32 129.164 82.3679 129.853 83.1834C130.543 84.0021 131.475 84.6275 132.651 85.061C133.827 85.496 135.18 85.7128 136.713 85.7128C140.8 85.7128 143.33 84.2314 144.3 81.2685L139.701 99.2781C137.557 100.557 135.434 101.322 133.34 101.577C131.244 101.832 129.125 101.96 126.979 101.96C123.862 101.96 120.874 101.463 118.013 100.466C115.151 99.4699 112.611 98.0399 110.387 96.1749C108.165 94.3098 106.403 92.0362 105.101 89.354C103.797 86.6718 103.147 83.6201 103.147 80.1972C103.147 77.8986 103.453 75.7794 104.067 73.8364C104.68 71.8949 105.548 70.1078 106.673 68.472C107.796 66.8377 109.137 65.3953 110.696 64.1431C112.254 62.8909 113.965 61.832 115.831 60.9619C117.695 60.0933 119.688 59.443 121.808 59.008C123.928 58.5744 126.087 58.3561 128.285 58.3561C129.306 58.3561 130.404 58.4201 131.58 58.5479C132.754 58.6758 133.942 58.8801 135.143 59.1608C136.342 59.4415 137.505 59.8251 138.63 60.3101C139.752 60.7966 140.788 61.3829 141.733 62.0722C142.678 62.7615 143.483 63.5926 144.147 64.5626C144.197 64.6655 144.236 64.7154 144.262 64.7154C144.287 64.7154 144.3 64.6904 144.3 64.639V59.5039H170.816V78.1263L170.813 78.1247Z" fill="white"/>
<path d="M173.802 80.2689V59.5007H200.318V74.6738L200.242 74.7502C195.847 75.6702 191.442 76.5887 187.023 77.5088C182.603 78.4288 178.197 79.3489 173.804 80.2674L173.802 80.2689ZM173.802 107.014V80.2689H200.318V107.014H173.802Z" fill="white"/>
<path d="M203.534 87.0133V59.3479L229.743 53.065V79.9633C229.743 80.9332 229.959 81.7768 230.394 82.491C230.828 83.2068 231.441 83.8072 232.233 84.2922C233.025 84.7787 233.958 85.1483 235.031 85.404C236.103 85.6598 237.304 85.7876 238.633 85.7876C240.114 85.7876 241.621 85.5584 243.155 85.0984C244.688 84.6384 246.079 84.0006 247.331 83.1819C248.583 82.3647 249.489 81.4197 250.052 80.3469V103.643C247.855 105.38 245.02 106.67 241.546 107.513C238.071 108.357 234.597 108.778 231.123 108.778C225.86 108.778 221.147 107.922 216.985 106.211C212.82 104.501 209.537 102.023 207.137 98.7775C204.734 95.5339 203.535 91.612 203.535 87.0149L203.534 87.0133ZM229.819 80.3469C230.432 77.9968 231.032 75.6718 231.62 73.3732C232.206 71.0746 232.794 68.7636 233.382 66.4385C233.969 64.115 234.544 61.8024 235.107 59.5038H250.051V80.3484H229.819V80.3469Z" fill="white"/>
<path d="M269.018 58.4668C273.386 57.6232 277.766 57.2021 282.16 57.2021C286.555 57.2021 290.589 57.6107 294.575 58.4278C298.559 59.245 302.122 60.4972 305.265 62.1829C308.407 63.8686 310.897 65.9644 312.736 68.4673C314.576 70.9701 315.496 73.9081 315.496 77.2811V107.014H288.673V90.9212C288.673 90.0011 288.367 89.262 287.754 88.699C287.141 88.1376 286.399 87.7416 285.532 87.5123C284.662 87.2831 283.793 87.1677 282.926 87.1677C280.983 87.1677 279.516 87.5513 278.519 88.317C277.523 89.0842 277.025 89.9528 277.025 90.9227C277.025 91.8927 277.535 92.7753 278.558 93.5659C279.58 94.3581 281.036 94.7542 282.926 94.7542C283.846 94.7542 284.893 94.5749 286.068 94.2178C287.243 93.8607 288.138 92.9406 288.751 91.4592C287.678 93.962 286.591 96.4664 285.493 98.9693C284.394 101.472 283.308 103.977 282.235 106.479C280.395 107.399 278.468 108.05 276.45 108.433C274.43 108.817 272.427 109.007 270.434 109.007C268.032 109.007 265.721 108.688 263.499 108.05C261.277 107.41 259.284 106.479 257.522 105.252C255.76 104.025 254.367 102.494 253.344 100.653C252.321 98.8149 251.811 96.6676 251.811 94.2162C251.811 92.7348 252.067 91.2783 252.577 89.8483C253.087 88.4183 253.854 87.0648 254.877 85.7876C255.897 84.5105 257.188 83.3861 258.746 82.4162C260.304 81.4462 262.155 80.6915 264.302 80.155C266.448 79.6186 268.901 79.3504 271.659 79.3504C273.446 79.3504 275.184 79.4907 276.869 79.7714C278.555 80.0521 280.152 80.4747 281.658 81.0361C283.165 81.5991 284.52 82.2883 285.721 83.1054C286.92 83.9241 287.904 84.8426 288.671 85.864V85.1748C288.671 83.592 288.275 82.2244 287.484 81.0751C286.692 79.9258 285.619 78.9808 284.266 78.2385C282.911 77.4994 281.354 76.9489 279.591 76.5918C277.827 76.2347 275.976 76.0554 274.034 76.0554C271.02 76.0554 267.981 76.439 264.915 77.2046C261.849 77.9703 259.167 79.0946 256.868 80.5761V62.2608C260.597 60.5751 264.647 59.3105 269.015 58.4668H269.018Z" fill="white"/>
<path d="M318.484 107.014V49.5392H345V107.014H318.484Z" fill="white"/>
<path d="M44.7534 107.014V82.4146C44.7534 81.4447 44.4977 80.601 43.9877 79.8853C43.4763 79.1711 42.787 78.5816 41.9184 78.1231C41.0498 77.6631 40.0799 77.3185 39.007 77.0877C37.9341 76.8585 36.8098 76.7431 35.6356 76.7431C32.6711 76.7431 30.463 77.331 29.0065 78.5052C27.55 79.681 26.8218 80.9831 26.8218 82.4131C26.8218 83.4859 27.1399 84.4574 27.7808 85.3245C28.4186 86.1931 29.3901 86.8948 30.6922 87.4312C31.9943 87.9677 33.6426 88.2359 35.6356 88.2359C37.7797 88.2359 39.6963 87.8523 41.382 87.0866C43.0677 86.3209 44.1655 85.0687 44.677 83.3316L38.547 107.011C36.9112 107.42 35.3533 107.713 33.8719 107.892C32.3904 108.072 30.6782 108.16 28.7367 108.16C24.8024 108.16 21.0988 107.612 17.626 106.514C14.1516 105.416 11.0983 103.794 8.46758 101.647C5.83686 99.501 3.76597 96.8953 2.26114 93.8295C0.753193 90.7637 0 87.2644 0 83.33C0 79.9586 0.536436 76.9317 1.60931 74.2496C2.68218 71.5674 4.14958 69.2298 6.01463 67.2369C7.87968 65.244 10.0379 63.5848 12.4908 62.2562C14.9438 60.9291 17.5605 59.9451 20.3456 59.3058C23.1291 58.668 25.9516 58.3483 28.8147 58.3483C29.9889 58.3483 31.1897 58.3998 32.4154 58.5011C33.6411 58.604 34.8418 58.7569 36.0176 58.9611C37.1934 59.1654 38.3037 59.4477 39.3516 59.8048C40.398 60.1634 41.3695 60.597 42.263 61.1084C43.1566 61.6199 43.9363 62.2078 44.6006 62.8706C44.652 62.922 44.6895 62.9345 44.716 62.908C44.7409 62.883 44.755 62.8456 44.755 62.7942V49.5361H71.2711V107.011H44.755L44.7534 107.014Z" fill="url(#paint0_linear_1_42)"/>
<path d="M74.3323 80.2689V59.5007H100.848V74.6738L100.772 74.7502C96.3776 75.6702 91.9723 76.5887 87.5529 77.5088C83.1336 78.4288 78.7267 79.3489 74.3338 80.2674L74.3323 80.2689ZM74.3323 107.014V80.2689H100.848V107.014H74.3323Z" fill="url(#paint1_linear_1_42)"/>
<path d="M170.813 78.1247V96.8236C170.813 99.5822 170.173 102.073 168.896 104.296C167.619 106.518 165.857 108.485 163.61 110.197C161.361 111.908 158.755 113.325 155.793 114.45C152.828 115.572 149.636 116.428 146.213 117.016C142.79 117.603 139.316 117.897 135.79 117.897C131.294 117.897 126.848 117.411 122.457 116.441C118.063 115.471 114.128 114.014 110.656 112.073V99.8878C112.137 100.859 113.938 101.74 116.059 102.533C118.178 103.325 120.439 103.95 122.841 104.41C125.242 104.87 127.617 105.099 129.967 105.099C131.909 105.099 133.735 104.908 135.447 104.525C137.159 104.142 138.678 103.541 140.008 102.724C141.335 101.907 142.383 100.834 143.15 99.5058C143.916 98.1787 144.3 96.5429 144.3 94.6014V80.4233C144.3 79.5032 144.12 78.7126 143.763 78.0483C143.405 77.3856 142.882 76.8351 142.193 76.4C141.504 75.9665 140.697 75.6344 139.779 75.4036C138.859 75.1743 137.836 75.0589 136.713 75.0589C135.18 75.0589 133.813 75.2507 132.614 75.6344C131.411 76.018 130.48 76.5918 129.816 77.3591C129.152 78.1263 128.819 79.0713 128.819 80.1956C128.819 81.32 129.164 82.3679 129.853 83.1834C130.543 84.0021 131.475 84.6275 132.651 85.061C133.827 85.496 135.18 85.7128 136.713 85.7128C140.8 85.7128 143.33 84.2314 144.3 81.2685L139.701 99.2781C137.557 100.557 135.434 101.322 133.34 101.577C131.244 101.832 129.125 101.96 126.979 101.96C123.862 101.96 120.874 101.463 118.013 100.466C115.151 99.4699 112.611 98.0399 110.387 96.1749C108.165 94.3098 106.403 92.0362 105.101 89.354C103.797 86.6718 103.147 83.6201 103.147 80.1972C103.147 77.8986 103.453 75.7794 104.067 73.8364C104.68 71.8949 105.548 70.1078 106.673 68.472C107.796 66.8377 109.137 65.3953 110.696 64.1431C112.254 62.8909 113.965 61.832 115.831 60.9619C117.695 60.0933 119.688 59.443 121.808 59.008C123.928 58.5744 126.087 58.3561 128.285 58.3561C129.306 58.3561 130.404 58.4201 131.58 58.5479C132.754 58.6758 133.942 58.8801 135.143 59.1608C136.342 59.4415 137.505 59.8251 138.63 60.3101C139.752 60.7966 140.788 61.3829 141.733 62.0722C142.678 62.7615 143.483 63.5926 144.147 64.5626C144.197 64.6655 144.236 64.7154 144.262 64.7154C144.287 64.7154 144.3 64.6904 144.3 64.639V59.5039H170.816V78.1263L170.813 78.1247Z" fill="url(#paint2_linear_1_42)"/>
<path d="M173.802 80.2689V59.5007H200.318V74.6738L200.242 74.7502C195.847 75.6702 191.442 76.5887 187.023 77.5088C182.603 78.4288 178.197 79.3489 173.804 80.2674L173.802 80.2689ZM173.802 107.014V80.2689H200.318V107.014H173.802Z" fill="url(#paint3_linear_1_42)"/>
<path d="M203.534 87.0133V59.3479L229.743 53.065V79.9633C229.743 80.9332 229.959 81.7768 230.394 82.491C230.828 83.2068 231.441 83.8072 232.233 84.2922C233.025 84.7787 233.958 85.1483 235.031 85.404C236.103 85.6598 237.304 85.7876 238.633 85.7876C240.114 85.7876 241.621 85.5584 243.155 85.0984C244.688 84.6384 246.079 84.0006 247.331 83.1819C248.583 82.3647 249.489 81.4197 250.052 80.3469V103.643C247.855 105.38 245.02 106.67 241.546 107.513C238.071 108.357 234.597 108.778 231.123 108.778C225.86 108.778 221.147 107.922 216.985 106.211C212.82 104.501 209.537 102.023 207.137 98.7775C204.734 95.5339 203.535 91.612 203.535 87.0149L203.534 87.0133ZM229.819 80.3469C230.432 77.9968 231.032 75.6718 231.62 73.3732C232.206 71.0746 232.794 68.7636 233.382 66.4385C233.969 64.115 234.544 61.8024 235.107 59.5038H250.051V80.3484H229.819V80.3469Z" fill="url(#paint4_linear_1_42)"/>
<path d="M269.018 58.4668C273.386 57.6232 277.766 57.2021 282.16 57.2021C286.555 57.2021 290.589 57.6107 294.575 58.4278C298.559 59.245 302.122 60.4972 305.265 62.1829C308.407 63.8686 310.897 65.9644 312.736 68.4673C314.576 70.9701 315.496 73.9081 315.496 77.2811V107.014H288.673V90.9212C288.673 90.0011 288.367 89.262 287.754 88.699C287.141 88.1376 286.399 87.7416 285.532 87.5123C284.662 87.2831 283.793 87.1677 282.926 87.1677C280.983 87.1677 279.516 87.5513 278.519 88.317C277.523 89.0842 277.025 89.9528 277.025 90.9227C277.025 91.8927 277.535 92.7753 278.558 93.5659C279.58 94.3581 281.036 94.7542 282.926 94.7542C283.846 94.7542 284.893 94.5749 286.068 94.2178C287.243 93.8607 288.138 92.9406 288.751 91.4592C287.678 93.962 286.591 96.4664 285.493 98.9693C284.394 101.472 283.308 103.977 282.235 106.479C280.395 107.399 278.468 108.05 276.45 108.433C274.43 108.817 272.427 109.007 270.434 109.007C268.032 109.007 265.721 108.688 263.499 108.05C261.277 107.41 259.284 106.479 257.522 105.252C255.76 104.025 254.367 102.494 253.344 100.653C252.321 98.8149 251.811 96.6676 251.811 94.2162C251.811 92.7348 252.067 91.2783 252.577 89.8483C253.087 88.4183 253.854 87.0648 254.877 85.7876C255.897 84.5105 257.188 83.3861 258.746 82.4162C260.304 81.4462 262.155 80.6915 264.302 80.155C266.448 79.6186 268.901 79.3504 271.659 79.3504C273.446 79.3504 275.184 79.4907 276.869 79.7714C278.555 80.0521 280.152 80.4747 281.658 81.0361C283.165 81.5991 284.52 82.2883 285.721 83.1054C286.92 83.9241 287.904 84.8426 288.671 85.864V85.1748C288.671 83.592 288.275 82.2244 287.484 81.0751C286.692 79.9258 285.619 78.9808 284.266 78.2385C282.911 77.4994 281.354 76.9489 279.591 76.5918C277.827 76.2347 275.976 76.0554 274.034 76.0554C271.02 76.0554 267.981 76.439 264.915 77.2046C261.849 77.9703 259.167 79.0946 256.868 80.5761V62.2608C260.597 60.5751 264.647 59.3105 269.015 58.4668H269.018Z" fill="url(#paint5_linear_1_42)"/>
<path d="M318.484 107.014V49.5392H345V107.014H318.484Z" fill="url(#paint6_linear_1_42)"/>
<defs>
<linearGradient id="paint0_linear_1_42" x1="-0.00155941" y1="83.7183" x2="344.998" y2="83.7183" gradientUnits="userSpaceOnUse">
<stop stop-color="#FFA245"/>
<stop offset="1" stop-color="#FFEC8B"/>
</linearGradient>
<linearGradient id="paint1_linear_1_42" x1="-0.00151378" y1="83.7183" x2="344.998" y2="83.7183" gradientUnits="userSpaceOnUse">
<stop stop-color="#FFA245"/>
<stop offset="1" stop-color="#FFEC8B"/>
</linearGradient>
<linearGradient id="paint2_linear_1_42" x1="-0.00154346" y1="83.7183" x2="344.998" y2="83.7183" gradientUnits="userSpaceOnUse">
<stop stop-color="#FFA245"/>
<stop offset="1" stop-color="#FFEC8B"/>
</linearGradient>
<linearGradient id="paint3_linear_1_42" x1="-0.00146185" y1="83.7183" x2="344.998" y2="83.7183" gradientUnits="userSpaceOnUse">
<stop stop-color="#FFA245"/>
<stop offset="1" stop-color="#FFEC8B"/>
</linearGradient>
<linearGradient id="paint4_linear_1_42" x1="-0.00165097" y1="83.7183" x2="344.998" y2="83.7183" gradientUnits="userSpaceOnUse">
<stop stop-color="#FFA245"/>
<stop offset="1" stop-color="#FFEC8B"/>
</linearGradient>
<linearGradient id="paint5_linear_1_42" x1="-0.00163385" y1="83.7183" x2="344.998" y2="83.7183" gradientUnits="userSpaceOnUse">
<stop stop-color="#FFA245"/>
<stop offset="1" stop-color="#FFEC8B"/>
</linearGradient>
<linearGradient id="paint6_linear_1_42" x1="-0.00137222" y1="83.7183" x2="344.998" y2="83.7183" gradientUnits="userSpaceOnUse">
<stop stop-color="#FFA245"/>
<stop offset="1" stop-color="#FFEC8B"/>
</linearGradient>
</defs>
</svg>
